<svg width="365" height="40" viewBox="0 0 365 40" fill="none" xmlns="http://www.w3.org/2000/svg">
<rect width="365" height="40" rx="20" fill="white" fill-opacity="0.1"/>
<path d="M140.16 15.8C140.277 15.8 140.379 15.8427 140.464 15.928C140.549 16.0133 140.592 16.1147 140.592 16.232V16.808C140.592 16.9253 140.549 17.0267 140.464 17.112C140.379 17.1973 140.277 17.24 140.16 17.24H134.896V20.936H139.84C139.957 20.936 140.059 20.9787 140.144 21.064C140.229 21.1493 140.272 21.2507 140.272 21.368V21.944C140.272 22.0613 140.229 22.1627 140.144 22.248C140.059 22.3333 139.957 22.376 139.84 22.376H134.896V26.568C134.896 26.6853 134.853 26.7867 134.768 26.872C134.683 26.9573 134.581 27 134.464 27H133.808C133.691 27 133.589 26.9573 133.504 26.872C133.419 26.7867 133.376 26.6853 133.376 26.568V16.232C133.376 16.1147 133.419 16.0133 133.504 15.928C133.589 15.8427 133.691 15.8 133.808 15.8H140.16ZM149.794 22.088C149.816 22.3227 149.826 22.5787 149.826 22.856C149.826 23.112 149.816 23.3573 149.794 23.592C149.698 24.68 149.32 25.5493 148.658 26.2C148.008 26.84 147.122 27.16 146.002 27.16C144.882 27.16 143.992 26.84 143.33 26.2C142.68 25.5493 142.306 24.68 142.21 23.592C142.2 23.4747 142.194 23.2293 142.194 22.856C142.194 22.4613 142.2 22.2053 142.21 22.088C142.296 21 142.669 20.136 143.33 19.496C143.992 18.8453 144.882 18.52 146.002 18.52C147.122 18.52 148.013 18.8453 148.674 19.496C149.336 20.136 149.709 21 149.794 22.088ZM148.338 22.168C148.274 21.4853 148.045 20.936 147.65 20.52C147.266 20.104 146.717 19.896 146.002 19.896C145.288 19.896 144.733 20.104 144.338 20.52C143.954 20.936 143.73 21.4853 143.666 22.168C143.656 22.296 143.65 22.5253 143.65 22.856C143.65 23.176 143.656 23.3947 143.666 23.512C143.73 24.1947 143.954 24.744 144.338 25.16C144.733 25.576 145.288 25.784 146.002 25.784C146.717 25.784 147.266 25.576 147.65 25.16C148.045 24.744 148.274 24.1947 148.338 23.512C148.36 23.2773 148.37 23.0587 148.37 22.856C148.37 22.6533 148.36 22.424 148.338 22.168ZM156.213 18.68C156.33 18.68 156.431 18.7227 156.517 18.808C156.602 18.8933 156.645 18.9947 156.645 19.112V19.624C156.645 19.7413 156.602 19.8427 156.517 19.928C156.431 20.0133 156.33 20.056 156.213 20.056H155.285C154.687 20.056 154.229 20.216 153.909 20.536C153.599 20.8453 153.445 21.2987 153.445 21.896V26.568C153.445 26.6853 153.402 26.7867 153.317 26.872C153.231 26.9573 153.13 27 153.013 27H152.421C152.303 27 152.202 26.9573 152.117 26.872C152.031 26.7867 151.989 26.6853 151.989 26.568V19.112C151.989 18.9947 152.031 18.8933 152.117 18.808C152.202 18.7227 152.303 18.68 152.421 18.68H153.013C153.13 18.68 153.231 18.7227 153.317 18.808C153.402 18.8933 153.445 18.9947 153.445 19.112V19.608C153.658 19.288 153.914 19.0533 154.213 18.904C154.511 18.7547 154.901 18.68 155.381 18.68H156.213ZM164.438 24.2C164.438 24.6587 164.529 25.0107 164.71 25.256C164.902 25.5013 165.259 25.624 165.782 25.624H166.63C166.747 25.624 166.849 25.6667 166.934 25.752C167.019 25.8373 167.062 25.9387 167.062 26.056V26.568C167.062 26.6853 167.019 26.7867 166.934 26.872C166.849 26.9573 166.747 27 166.63 27H165.622C164.715 27 164.049 26.7653 163.622 26.296C163.195 25.816 162.982 25.1173 162.982 24.2V20.056H161.798C161.681 20.056 161.579 20.0133 161.494 19.928C161.409 19.8427 161.366 19.7413 161.366 19.624V19.112C161.366 18.9947 161.409 18.8933 161.494 18.808C161.579 18.7227 161.681 18.68 161.798 18.68H162.982V16.072C162.982 15.9547 163.025 15.8533 163.11 15.768C163.195 15.6827 163.297 15.64 163.414 15.64H164.006C164.123 15.64 164.225 15.6827 164.31 15.768C164.395 15.8533 164.438 15.9547 164.438 16.072V18.68H166.47C166.587 18.68 166.689 18.7227 166.774 18.808C166.859 18.8933 166.902 18.9947 166.902 19.112V19.624C166.902 19.7413 166.859 19.8427 166.774 19.928C166.689 20.0133 166.587 20.056 166.47 20.056H164.438V24.2ZM176.22 26.568C176.22 26.6853 176.177 26.7867 176.092 26.872C176.007 26.9573 175.905 27 175.788 27H175.196C175.079 27 174.977 26.9573 174.892 26.872C174.807 26.7867 174.764 26.6853 174.764 26.568V22.344C174.764 21.544 174.567 20.936 174.172 20.52C173.777 20.104 173.228 19.896 172.524 19.896C171.831 19.896 171.281 20.104 170.876 20.52C170.481 20.936 170.284 21.544 170.284 22.344V26.568C170.284 26.6853 170.241 26.7867 170.156 26.872C170.071 26.9573 169.969 27 169.852 27H169.26C169.143 27 169.041 26.9573 168.956 26.872C168.871 26.7867 168.828 26.6853 168.828 26.568V16.072C168.828 15.9547 168.871 15.8533 168.956 15.768C169.041 15.6827 169.143 15.64 169.26 15.64H169.852C169.969 15.64 170.071 15.6827 170.156 15.768C170.241 15.8533 170.284 15.9547 170.284 16.072V19.608C170.519 19.2987 170.839 19.0427 171.244 18.84C171.66 18.6267 172.167 18.52 172.764 18.52C173.436 18.52 174.033 18.664 174.556 18.952C175.079 19.24 175.484 19.656 175.772 20.2C176.071 20.7333 176.22 21.368 176.22 22.104V26.568ZM181.987 18.52C183.128 18.52 184.03 18.8827 184.691 19.608C185.352 20.3333 185.683 21.32 185.683 22.568V23C185.683 23.1173 185.64 23.2187 185.555 23.304C185.47 23.3893 185.368 23.432 185.251 23.432H179.747V23.528C179.768 24.232 179.982 24.7867 180.387 25.192C180.803 25.5867 181.336 25.784 181.987 25.784C182.52 25.784 182.931 25.7147 183.219 25.576C183.518 25.4373 183.784 25.24 184.019 24.984C184.104 24.8987 184.179 24.84 184.243 24.808C184.318 24.776 184.414 24.76 184.531 24.76H185.011C185.139 24.76 185.246 24.8027 185.331 24.888C185.416 24.9733 185.454 25.0747 185.443 25.192C185.4 25.48 185.24 25.7787 184.963 26.088C184.696 26.3867 184.307 26.6427 183.795 26.856C183.294 27.0587 182.691 27.16 181.987 27.16C181.304 27.16 180.696 27.0053 180.163 26.696C179.63 26.376 179.203 25.9387 178.883 25.384C178.574 24.8293 178.387 24.2053 178.323 23.512C178.302 23.192 178.291 22.9467 178.291 22.776C178.291 22.6053 178.302 22.36 178.323 22.04C178.387 21.3787 178.574 20.7813 178.883 20.248C179.203 19.7147 179.624 19.2933 180.147 18.984C180.68 18.6747 181.294 18.52 181.987 18.52ZM184.243 22.088V22.04C184.243 21.3893 184.035 20.872 183.619 20.488C183.214 20.0933 182.67 19.896 181.987 19.896C181.368 19.896 180.84 20.0933 180.403 20.488C179.976 20.8827 179.758 21.4 179.747 22.04V22.088H184.243ZM192.015 16.232C192.015 16.1147 192.058 16.0133 192.143 15.928C192.229 15.8427 192.33 15.8 192.447 15.8H196.735C197.578 15.8 198.261 15.9653 198.783 16.296C199.306 16.616 199.679 17.0053 199.903 17.464C200.127 17.9227 200.239 18.3707 200.239 18.808C200.239 19.4053 200.095 19.8907 199.807 20.264C199.519 20.6267 199.237 20.8933 198.959 21.064C199.407 21.3627 199.77 21.7467 200.047 22.216C200.335 22.6747 200.479 23.1867 200.479 23.752C200.479 24.3067 200.341 24.8347 200.063 25.336C199.797 25.8267 199.397 26.2267 198.863 26.536C198.33 26.8453 197.695 27 196.959 27H192.447C192.33 27 192.229 26.9573 192.143 26.872C192.058 26.7867 192.015 26.6853 192.015 26.568V16.232ZM193.535 20.472H196.575C197.279 20.472 197.813 20.3333 198.175 20.056C198.538 19.7787 198.719 19.3787 198.719 18.856C198.719 18.3333 198.538 17.9333 198.175 17.656C197.813 17.3787 197.279 17.24 196.575 17.24H193.535V20.472ZM193.535 25.56H196.799C197.482 25.56 198.01 25.3893 198.383 25.048C198.767 24.696 198.959 24.264 198.959 23.752C198.959 23.2293 198.778 22.792 198.415 22.44C198.053 22.088 197.514 21.912 196.799 21.912H193.535V25.56ZM204.127 26.568C204.127 26.6853 204.085 26.7867 203.999 26.872C203.914 26.9573 203.813 27 203.695 27H203.103C202.986 27 202.885 26.9573 202.799 26.872C202.714 26.7867 202.671 26.6853 202.671 26.568V16.072C202.671 15.9547 202.714 15.8533 202.799 15.768C202.885 15.6827 202.986 15.64 203.103 15.64H203.695C203.813 15.64 203.914 15.6827 203.999 15.768C204.085 15.8533 204.127 15.9547 204.127 16.072V26.568ZM211.635 21.736V21.528C211.635 21.0053 211.459 20.6053 211.107 20.328C210.765 20.04 210.317 19.896 209.763 19.896C209.336 19.896 209 19.9707 208.755 20.12C208.52 20.2587 208.296 20.472 208.083 20.76C208.019 20.8453 207.949 20.904 207.875 20.936C207.8 20.968 207.699 20.984 207.571 20.984H207.091C206.973 20.984 206.867 20.9413 206.771 20.856C206.685 20.7707 206.648 20.6693 206.659 20.552C206.691 20.232 206.845 19.9173 207.123 19.608C207.411 19.288 207.789 19.0267 208.259 18.824C208.728 18.6213 209.229 18.52 209.763 18.52C210.755 18.52 211.555 18.7973 212.163 19.352C212.781 19.9067 213.091 20.6853 213.091 21.688V26.568C213.091 26.6853 213.048 26.7867 212.963 26.872C212.877 26.9573 212.776 27 212.659 27H212.067C211.949 27 211.848 26.9573 211.763 26.872C211.677 26.7867 211.635 26.6853 211.635 26.568V25.912C211.464 26.296 211.101 26.6 210.547 26.824C209.992 27.048 209.437 27.16 208.883 27.16C208.339 27.16 207.853 27.064 207.427 26.872C207 26.6693 206.669 26.3973 206.435 26.056C206.211 25.7147 206.099 25.3307 206.099 24.904C206.099 24.104 206.397 23.48 206.995 23.032C207.592 22.5733 208.387 22.264 209.379 22.104L211.635 21.736ZM211.635 23.016L209.747 23.32C209.053 23.4267 208.515 23.6027 208.131 23.848C207.747 24.0827 207.555 24.3813 207.555 24.744C207.555 25.0107 207.677 25.2507 207.923 25.464C208.168 25.6773 208.541 25.784 209.043 25.784C209.811 25.784 210.435 25.5653 210.915 25.128C211.395 24.6907 211.635 24.12 211.635 23.416V23.016ZM218.945 25.784C220.012 25.784 220.732 25.368 221.105 24.536C221.18 24.376 221.254 24.264 221.329 24.2C221.404 24.136 221.505 24.104 221.633 24.104H222.113C222.23 24.104 222.332 24.1467 222.417 24.232C222.502 24.3067 222.545 24.3973 222.545 24.504C222.545 24.8667 222.401 25.256 222.113 25.672C221.825 26.088 221.409 26.44 220.865 26.728C220.321 27.016 219.681 27.16 218.945 27.16C218.188 27.16 217.532 27 216.977 26.68C216.422 26.36 215.996 25.9227 215.697 25.368C215.398 24.8027 215.233 24.1733 215.201 23.48C215.19 23.352 215.185 23.1067 215.185 22.744C215.185 22.488 215.19 22.3067 215.201 22.2C215.297 21.112 215.665 20.2267 216.305 19.544C216.945 18.8613 217.825 18.52 218.945 18.52C219.681 18.52 220.316 18.664 220.849 18.952C221.393 19.2293 221.804 19.576 222.081 19.992C222.369 20.3973 222.524 20.7813 222.545 21.144C222.556 21.2613 222.513 21.3627 222.417 21.448C222.332 21.5333 222.23 21.576 222.113 21.576H221.633C221.505 21.576 221.404 21.544 221.329 21.48C221.254 21.416 221.18 21.304 221.105 21.144C220.732 20.312 220.012 19.896 218.945 19.896C218.358 19.896 217.846 20.0933 217.409 20.488C216.972 20.8827 216.721 21.48 216.657 22.28C216.646 22.3973 216.641 22.5893 216.641 22.856C216.641 23.1013 216.646 23.2827 216.657 23.4C216.732 24.2 216.982 24.7973 217.409 25.192C217.846 25.5867 218.358 25.784 218.945 25.784ZM226.076 26.568C226.076 26.6853 226.033 26.7867 225.948 26.872C225.863 26.9573 225.761 27 225.644 27H225.052C224.935 27 224.833 26.9573 224.748 26.872C224.663 26.7867 224.62 26.6853 224.62 26.568V16.072C224.62 15.9547 224.663 15.8533 224.748 15.768C224.833 15.6827 224.935 15.64 225.052 15.64H225.644C225.761 15.64 225.863 15.6827 225.948 15.768C226.033 15.8533 226.076 15.9547 226.076 16.072V21.368L229.196 18.952C229.313 18.8667 229.415 18.8027 229.5 18.76C229.585 18.7067 229.692 18.68 229.82 18.68H230.62C230.727 18.68 230.817 18.7173 230.892 18.792C230.967 18.8667 231.004 18.9573 231.004 19.064C231.004 19.1813 230.945 19.288 230.828 19.384L226.972 22.392L231.228 26.312C231.335 26.4187 231.388 26.52 231.388 26.616C231.388 26.7227 231.351 26.8133 231.276 26.888C231.201 26.9627 231.111 27 231.004 27H230.252C230.028 27 229.809 26.9093 229.596 26.728L226.076 23.48V26.568ZM243.978 15.8C244.095 15.8 244.197 15.8427 244.282 15.928C244.367 16.0133 244.41 16.1147 244.41 16.232V16.808C244.41 16.9253 244.367 17.0267 244.282 17.112C244.197 17.1973 244.095 17.24 243.978 17.24H238.714V20.936H243.658C243.775 20.936 243.877 20.9787 243.962 21.064C244.047 21.1493 244.09 21.2507 244.09 21.368V21.944C244.09 22.0613 244.047 22.1627 243.962 22.248C243.877 22.3333 243.775 22.376 243.658 22.376H238.714V26.568C238.714 26.6853 238.671 26.7867 238.586 26.872C238.501 26.9573 238.399 27 238.282 27H237.626C237.509 27 237.407 26.9573 237.322 26.872C237.237 26.7867 237.194 26.6853 237.194 26.568V16.232C237.194 16.1147 237.237 16.0133 237.322 15.928C237.407 15.8427 237.509 15.8 237.626 15.8H243.978ZM250.637 18.68C250.754 18.68 250.855 18.7227 250.941 18.808C251.026 18.8933 251.069 18.9947 251.069 19.112V19.624C251.069 19.7413 251.026 19.8427 250.941 19.928C250.855 20.0133 250.754 20.056 250.637 20.056H249.709C249.111 20.056 248.653 20.216 248.333 20.536C248.023 20.8453 247.869 21.2987 247.869 21.896V26.568C247.869 26.6853 247.826 26.7867 247.741 26.872C247.655 26.9573 247.554 27 247.437 27H246.845C246.727 27 246.626 26.9573 246.541 26.872C246.455 26.7867 246.413 26.6853 246.413 26.568V19.112C246.413 18.9947 246.455 18.8933 246.541 18.808C246.626 18.7227 246.727 18.68 246.845 18.68H247.437C247.554 18.68 247.655 18.7227 247.741 18.808C247.826 18.8933 247.869 18.9947 247.869 19.112V19.608C248.082 19.288 248.338 19.0533 248.637 18.904C248.935 18.7547 249.325 18.68 249.805 18.68H250.637ZM254.235 16.984C254.235 17.1013 254.193 17.2027 254.107 17.288C254.022 17.3733 253.921 17.416 253.803 17.416H252.891C252.774 17.416 252.673 17.3733 252.587 17.288C252.502 17.2027 252.459 17.1013 252.459 16.984V16.072C252.459 15.9547 252.502 15.8533 252.587 15.768C252.673 15.6827 252.774 15.64 252.891 15.64H253.803C253.921 15.64 254.022 15.6827 254.107 15.768C254.193 15.8533 254.235 15.9547 254.235 16.072V16.984ZM254.075 26.568C254.075 26.6853 254.033 26.7867 253.947 26.872C253.862 26.9573 253.761 27 253.643 27H253.051C252.934 27 252.833 26.9573 252.747 26.872C252.662 26.7867 252.619 26.6853 252.619 26.568V19.112C252.619 18.9947 252.662 18.8933 252.747 18.808C252.833 18.7227 252.934 18.68 253.051 18.68H253.643C253.761 18.68 253.862 18.7227 253.947 18.808C254.033 18.8933 254.075 18.9947 254.075 19.112V26.568ZM262.351 16.072C262.351 15.9547 262.393 15.8533 262.479 15.768C262.564 15.6827 262.665 15.64 262.783 15.64H263.375C263.492 15.64 263.593 15.6827 263.679 15.768C263.764 15.8533 263.807 15.9547 263.807 16.072V26.568C263.807 26.6853 263.764 26.7867 263.679 26.872C263.593 26.9573 263.492 27 263.375 27H262.783C262.665 27 262.564 26.9573 262.479 26.872C262.393 26.7867 262.351 26.6853 262.351 26.568V26.072C261.807 26.7973 260.98 27.16 259.871 27.16C259.209 27.16 258.607 27.0053 258.063 26.696C257.529 26.3867 257.097 25.944 256.767 25.368C256.447 24.792 256.271 24.12 256.239 23.352L256.223 22.824L256.239 22.312C256.271 21.544 256.447 20.8773 256.767 20.312C257.097 19.736 257.529 19.2933 258.063 18.984C258.596 18.6747 259.199 18.52 259.871 18.52C260.468 18.52 260.969 18.6267 261.375 18.84C261.791 19.0427 262.116 19.2987 262.351 19.608V16.072ZM262.351 22.264C262.319 21.5173 262.095 20.936 261.679 20.52C261.263 20.104 260.713 19.896 260.031 19.896C259.337 19.896 258.783 20.12 258.367 20.568C257.961 21.016 257.737 21.624 257.695 22.392L257.679 22.84L257.695 23.288C257.737 24.056 257.961 24.664 258.367 25.112C258.783 25.56 259.337 25.784 260.031 25.784C260.692 25.784 261.236 25.5813 261.663 25.176C262.089 24.76 262.319 24.2107 262.351 23.528C262.361 23.4213 262.367 23.208 262.367 22.888C262.367 22.5787 262.361 22.3707 262.351 22.264ZM271.305 21.736V21.528C271.305 21.0053 271.129 20.6053 270.777 20.328C270.436 20.04 269.988 19.896 269.433 19.896C269.007 19.896 268.671 19.9707 268.425 20.12C268.191 20.2587 267.967 20.472 267.753 20.76C267.689 20.8453 267.62 20.904 267.545 20.936C267.471 20.968 267.369 20.984 267.241 20.984H266.761C266.644 20.984 266.537 20.9413 266.441 20.856C266.356 20.7707 266.319 20.6693 266.329 20.552C266.361 20.232 266.516 19.9173 266.793 19.608C267.081 19.288 267.46 19.0267 267.929 18.824C268.399 18.6213 268.9 18.52 269.433 18.52C270.425 18.52 271.225 18.7973 271.833 19.352C272.452 19.9067 272.761 20.6853 272.761 21.688V26.568C272.761 26.6853 272.719 26.7867 272.633 26.872C272.548 26.9573 272.447 27 272.329 27H271.737C271.62 27 271.519 26.9573 271.433 26.872C271.348 26.7867 271.305 26.6853 271.305 26.568V25.912C271.135 26.296 270.772 26.6 270.217 26.824C269.663 27.048 269.108 27.16 268.553 27.16C268.009 27.16 267.524 27.064 267.097 26.872C266.671 26.6693 266.34 26.3973 266.105 26.056C265.881 25.7147 265.769 25.3307 265.769 24.904C265.769 24.104 266.068 23.48 266.665 23.032C267.263 22.5733 268.057 22.264 269.049 22.104L271.305 21.736ZM271.305 23.016L269.417 23.32C268.724 23.4267 268.185 23.6027 267.801 23.848C267.417 24.0827 267.225 24.3813 267.225 24.744C267.225 25.0107 267.348 25.2507 267.593 25.464C267.839 25.6773 268.212 25.784 268.713 25.784C269.481 25.784 270.105 25.5653 270.585 25.128C271.065 24.6907 271.305 24.12 271.305 23.416V23.016ZM277.704 29.656C277.608 29.912 277.453 30.04 277.24 30.04H276.584C276.477 30.04 276.386 30.0027 276.312 29.928C276.237 29.8533 276.2 29.7627 276.2 29.656C276.2 29.6133 276.205 29.576 276.216 29.544L277.752 26.2L274.584 19.176C274.573 19.144 274.568 19.1067 274.568 19.064C274.568 18.9573 274.605 18.8667 274.68 18.792C274.754 18.7173 274.845 18.68 274.952 18.68H275.608C275.821 18.68 275.976 18.808 276.072 19.064L278.536 24.504L281.032 19.064C281.128 18.808 281.282 18.68 281.496 18.68H282.152C282.258 18.68 282.349 18.7173 282.424 18.792C282.498 18.8667 282.536 18.9573 282.536 19.064C282.536 19.1067 282.53 19.144 282.52 19.176L277.704 29.656ZM298.004 19.064C298.1 18.808 298.281 18.68 298.548 18.68H299.076C299.183 18.68 299.273 18.7173 299.348 18.792C299.423 18.8667 299.46 18.9573 299.46 19.064L299.444 19.192L296.996 26.552C296.9 26.8507 296.74 27 296.516 27H296.02C295.892 27 295.791 26.9627 295.716 26.888C295.641 26.8027 295.577 26.6907 295.524 26.552L293.62 21.24L291.716 26.552C291.663 26.6907 291.599 26.8027 291.524 26.888C291.449 26.9627 291.348 27 291.22 27H290.724C290.5 27 290.34 26.8507 290.244 26.552L287.796 19.192L287.78 19.064C287.78 18.9573 287.817 18.8667 287.892 18.792C287.967 18.7173 288.057 18.68 288.164 18.68H288.692C288.959 18.68 289.14 18.808 289.236 19.064L291.028 24.408L292.948 19.064C293.044 18.808 293.209 18.68 293.444 18.68H293.796C294.031 18.68 294.196 18.808 294.292 19.064L296.212 24.408L298.004 19.064ZM304.688 18.52C305.829 18.52 306.73 18.8827 307.392 19.608C308.053 20.3333 308.384 21.32 308.384 22.568V23C308.384 23.1173 308.341 23.2187 308.256 23.304C308.17 23.3893 308.069 23.432 307.952 23.432H302.448V23.528C302.469 24.232 302.682 24.7867 303.088 25.192C303.504 25.5867 304.037 25.784 304.688 25.784C305.221 25.784 305.632 25.7147 305.92 25.576C306.218 25.4373 306.485 25.24 306.72 24.984C306.805 24.8987 306.88 24.84 306.944 24.808C307.018 24.776 307.114 24.76 307.232 24.76H307.712C307.84 24.76 307.946 24.8027 308.032 24.888C308.117 24.9733 308.154 25.0747 308.144 25.192C308.101 25.48 307.941 25.7787 307.664 26.088C307.397 26.3867 307.008 26.6427 306.496 26.856C305.994 27.0587 305.392 27.16 304.688 27.16C304.005 27.16 303.397 27.0053 302.864 26.696C302.33 26.376 301.904 25.9387 301.584 25.384C301.274 24.8293 301.088 24.2053 301.024 23.512C301.002 23.192 300.992 22.9467 300.992 22.776C300.992 22.6053 301.002 22.36 301.024 22.04C301.088 21.3787 301.274 20.7813 301.584 20.248C301.904 19.7147 302.325 19.2933 302.848 18.984C303.381 18.6747 303.994 18.52 304.688 18.52ZM306.944 22.088V22.04C306.944 21.3893 306.736 20.872 306.32 20.488C305.914 20.0933 305.37 19.896 304.688 19.896C304.069 19.896 303.541 20.0933 303.104 20.488C302.677 20.8827 302.458 21.4 302.448 22.04V22.088H306.944ZM313.754 18.52C314.895 18.52 315.796 18.8827 316.458 19.608C317.119 20.3333 317.45 21.32 317.45 22.568V23C317.45 23.1173 317.407 23.2187 317.322 23.304C317.236 23.3893 317.135 23.432 317.018 23.432H311.514V23.528C311.535 24.232 311.748 24.7867 312.154 25.192C312.57 25.5867 313.103 25.784 313.754 25.784C314.287 25.784 314.698 25.7147 314.986 25.576C315.284 25.4373 315.551 25.24 315.786 24.984C315.871 24.8987 315.946 24.84 316.01 24.808C316.084 24.776 316.18 24.76 316.298 24.76H316.778C316.906 24.76 317.012 24.8027 317.098 24.888C317.183 24.9733 317.22 25.0747 317.21 25.192C317.167 25.48 317.007 25.7787 316.73 26.088C316.463 26.3867 316.074 26.6427 315.562 26.856C315.06 27.0587 314.458 27.16 313.754 27.16C313.071 27.16 312.463 27.0053 311.93 26.696C311.396 26.376 310.97 25.9387 310.65 25.384C310.34 24.8293 310.154 24.2053 310.09 23.512C310.068 23.192 310.058 22.9467 310.058 22.776C310.058 22.6053 310.068 22.36 310.09 22.04C310.154 21.3787 310.34 20.7813 310.65 20.248C310.97 19.7147 311.391 19.2933 311.914 18.984C312.447 18.6747 313.06 18.52 313.754 18.52ZM316.01 22.088V22.04C316.01 21.3893 315.802 20.872 315.386 20.488C314.98 20.0933 314.436 19.896 313.754 19.896C313.135 19.896 312.607 20.0933 312.17 20.488C311.743 20.8827 311.524 21.4 311.514 22.04V22.088H316.01ZM320.996 26.568C320.996 26.6853 320.953 26.7867 320.868 26.872C320.783 26.9573 320.681 27 320.564 27H319.972C319.855 27 319.753 26.9573 319.668 26.872C319.583 26.7867 319.54 26.6853 319.54 26.568V16.072C319.54 15.9547 319.583 15.8533 319.668 15.768C319.753 15.6827 319.855 15.64 319.972 15.64H320.564C320.681 15.64 320.783 15.6827 320.868 15.768C320.953 15.8533 320.996 15.9547 320.996 16.072V21.368L324.116 18.952C324.233 18.8667 324.335 18.8027 324.42 18.76C324.505 18.7067 324.612 18.68 324.74 18.68H325.54C325.647 18.68 325.737 18.7173 325.812 18.792C325.887 18.8667 325.924 18.9573 325.924 19.064C325.924 19.1813 325.865 19.288 325.748 19.384L321.892 22.392L326.148 26.312C326.255 26.4187 326.308 26.52 326.308 26.616C326.308 26.7227 326.271 26.8133 326.196 26.888C326.121 26.9627 326.031 27 325.924 27H325.172C324.948 27 324.729 26.9093 324.516 26.728L320.996 23.48V26.568ZM331.152 18.52C332.293 18.52 333.195 18.8827 333.856 19.608C334.517 20.3333 334.848 21.32 334.848 22.568V23C334.848 23.1173 334.805 23.2187 334.72 23.304C334.635 23.3893 334.533 23.432 334.416 23.432H328.912V23.528C328.933 24.232 329.147 24.7867 329.552 25.192C329.968 25.5867 330.501 25.784 331.152 25.784C331.685 25.784 332.096 25.7147 332.384 25.576C332.683 25.4373 332.949 25.24 333.184 24.984C333.269 24.8987 333.344 24.84 333.408 24.808C333.483 24.776 333.579 24.76 333.696 24.76H334.176C334.304 24.76 334.411 24.8027 334.496 24.888C334.581 24.9733 334.619 25.0747 334.608 25.192C334.565 25.48 334.405 25.7787 334.128 26.088C333.861 26.3867 333.472 26.6427 332.96 26.856C332.459 27.0587 331.856 27.16 331.152 27.16C330.469 27.16 329.861 27.0053 329.328 26.696C328.795 26.376 328.368 25.9387 328.048 25.384C327.739 24.8293 327.552 24.2053 327.488 23.512C327.467 23.192 327.456 22.9467 327.456 22.776C327.456 22.6053 327.467 22.36 327.488 22.04C327.552 21.3787 327.739 20.7813 328.048 20.248C328.368 19.7147 328.789 19.2933 329.312 18.984C329.845 18.6747 330.459 18.52 331.152 18.52ZM333.408 22.088V22.04C333.408 21.3893 333.2 20.872 332.784 20.488C332.379 20.0933 331.835 19.896 331.152 19.896C330.533 19.896 330.005 20.0933 329.568 20.488C329.141 20.8827 328.923 21.4 328.912 22.04V22.088H333.408ZM344.33 26.568C344.33 26.6853 344.287 26.7867 344.202 26.872C344.117 26.9573 344.015 27 343.898 27H343.306C343.189 27 343.087 26.9573 343.002 26.872C342.917 26.7867 342.874 26.6853 342.874 26.568V22.344C342.874 21.544 342.677 20.936 342.282 20.52C341.887 20.104 341.338 19.896 340.634 19.896C339.941 19.896 339.391 20.104 338.986 20.52C338.591 20.936 338.394 21.544 338.394 22.344V26.568C338.394 26.6853 338.351 26.7867 338.266 26.872C338.181 26.9573 338.079 27 337.962 27H337.37C337.253 27 337.151 26.9573 337.066 26.872C336.981 26.7867 336.938 26.6853 336.938 26.568V19.112C336.938 18.9947 336.981 18.8933 337.066 18.808C337.151 18.7227 337.253 18.68 337.37 18.68H337.962C338.079 18.68 338.181 18.7227 338.266 18.808C338.351 18.8933 338.394 18.9947 338.394 19.112V19.608C338.629 19.2987 338.949 19.0427 339.354 18.84C339.77 18.6267 340.277 18.52 340.874 18.52C341.546 18.52 342.143 18.664 342.666 18.952C343.189 19.24 343.594 19.656 343.882 20.2C344.181 20.7333 344.33 21.368 344.33 22.104V26.568ZM352.529 16.072C352.529 15.9547 352.572 15.8533 352.657 15.768C352.742 15.6827 352.844 15.64 352.961 15.64H353.553C353.67 15.64 353.772 15.6827 353.857 15.768C353.942 15.8533 353.985 15.9547 353.985 16.072V26.568C353.985 26.6853 353.942 26.7867 353.857 26.872C353.772 26.9573 353.67 27 353.553 27H352.961C352.844 27 352.742 26.9573 352.657 26.872C352.572 26.7867 352.529 26.6853 352.529 26.568V26.072C351.985 26.7973 351.158 27.16 350.049 27.16C349.388 27.16 348.785 27.0053 348.241 26.696C347.708 26.3867 347.276 25.944 346.945 25.368C346.625 24.792 346.449 24.12 346.417 23.352L346.401 22.824L346.417 22.312C346.449 21.544 346.625 20.8773 346.945 20.312C347.276 19.736 347.708 19.2933 348.241 18.984C348.774 18.6747 349.377 18.52 350.049 18.52C350.646 18.52 351.148 18.6267 351.553 18.84C351.969 19.0427 352.294 19.2987 352.529 19.608V16.072ZM352.529 22.264C352.497 21.5173 352.273 20.936 351.857 20.52C351.441 20.104 350.892 19.896 350.209 19.896C349.516 19.896 348.961 20.12 348.545 20.568C348.14 21.016 347.916 21.624 347.873 22.392L347.857 22.84L347.873 23.288C347.916 24.056 348.14 24.664 348.545 25.112C348.961 25.56 349.516 25.784 350.209 25.784C350.87 25.784 351.414 25.5813 351.841 25.176C352.268 24.76 352.497 24.2107 352.529 23.528C352.54 23.4213 352.545 23.208 352.545 22.888C352.545 22.5787 352.54 22.3707 352.529 22.264Z" fill="white"/>
<rect x="3" y="4" width="113" height="32" rx="16" fill="white"/>
<path d="M21.32 25C21.224 25 21.144 24.968 21.08 24.904C21.016 24.8293 20.984 24.744 20.984 24.648C20.984 24.616 20.9947 24.568 21.016 24.504L24.872 15.704H19.848C19.7413 15.704 19.6507 15.6667 19.576 15.592C19.5013 15.5173 19.464 15.4267 19.464 15.32V14.2C19.464 14.0827 19.496 13.9867 19.56 13.912C19.6347 13.8373 19.7307 13.8 19.848 13.8H26.872C26.9893 13.8 27.08 13.8373 27.144 13.912C27.2187 13.9867 27.256 14.0827 27.256 14.2V15.192C27.256 15.4053 27.208 15.6347 27.112 15.88L23.288 24.616C23.1707 24.872 23 25 22.776 25H21.32ZM33.2235 25.176C32.3382 25.176 31.5755 25.0267 30.9355 24.728C30.3062 24.4293 29.8208 24.0347 29.4795 23.544C29.1488 23.0533 28.9728 22.5253 28.9515 21.96V21.928C28.9515 21.8427 28.9835 21.7733 29.0475 21.72C29.1115 21.6667 29.1915 21.64 29.2875 21.64H30.7755C31.0208 21.64 31.1808 21.7467 31.2555 21.96C31.4048 22.4293 31.6502 22.776 31.9915 23C32.3435 23.224 32.7542 23.336 33.2235 23.336C33.8208 23.336 34.3168 23.1547 34.7115 22.792C35.1168 22.4293 35.3195 21.9227 35.3195 21.272C35.3195 20.696 35.1168 20.2267 34.7115 19.864C34.3168 19.5013 33.8208 19.32 33.2235 19.32C32.9035 19.32 32.6422 19.3627 32.4395 19.448C32.2368 19.5333 32.0395 19.6507 31.8475 19.8C31.7195 19.896 31.6182 19.9653 31.5435 20.008C31.4795 20.04 31.3995 20.056 31.3035 20.056H29.8315C29.7355 20.056 29.6502 20.024 29.5755 19.96C29.5115 19.8853 29.4795 19.8 29.4795 19.704L30.0395 14.232C30.0502 14.104 30.0928 14.0027 30.1675 13.928C30.2528 13.8427 30.3595 13.8 30.4875 13.8H36.5035C36.6102 13.8 36.7008 13.8373 36.7755 13.912C36.8502 13.9867 36.8875 14.0773 36.8875 14.184V15.256C36.8875 15.3627 36.8502 15.4533 36.7755 15.528C36.7008 15.6027 36.6102 15.64 36.5035 15.64H31.8795L31.6235 18.248C32.1462 17.8853 32.8448 17.704 33.7195 17.704C34.4128 17.704 35.0528 17.8533 35.6395 18.152C36.2368 18.44 36.7115 18.8613 37.0635 19.416C37.4155 19.96 37.5915 20.5947 37.5915 21.32C37.5915 22.0987 37.4102 22.7813 37.0475 23.368C36.6848 23.944 36.1728 24.392 35.5115 24.712C34.8608 25.0213 34.0982 25.176 33.2235 25.176ZM41.9614 19.432C41.2574 19.432 40.692 19.2453 40.2654 18.872C39.8494 18.4987 39.62 17.992 39.5774 17.352C39.5667 17.1707 39.5614 16.9307 39.5614 16.632C39.5614 16.312 39.5667 16.056 39.5774 15.864C39.62 15.2027 39.844 14.68 40.2494 14.296C40.6547 13.912 41.2254 13.72 41.9614 13.72C42.6974 13.72 43.268 13.912 43.6734 14.296C44.0894 14.68 44.3134 15.2027 44.3454 15.864C44.3667 16.2907 44.3774 16.568 44.3774 16.696C44.3774 16.8133 44.3667 17.032 44.3454 17.352C44.3134 17.992 44.084 18.4987 43.6574 18.872C43.2414 19.2453 42.676 19.432 41.9614 19.432ZM40.6494 25C40.5534 25 40.4734 24.9733 40.4094 24.92C40.3454 24.856 40.3134 24.776 40.3134 24.68C40.3134 24.616 40.3347 24.5573 40.3774 24.504L48.2654 14.104C48.3507 13.9973 48.4307 13.9227 48.5054 13.88C48.58 13.8267 48.6814 13.8 48.8094 13.8H49.6574C49.764 13.8 49.844 13.832 49.8974 13.896C49.9614 13.9493 49.9934 14.024 49.9934 14.12C49.9934 14.184 49.972 14.2427 49.9294 14.296L42.0414 24.696C41.956 24.8027 41.876 24.8827 41.8014 24.936C41.7267 24.9787 41.6254 25 41.4974 25H40.6494ZM41.9614 18.248C42.2707 18.248 42.5 18.1573 42.6494 17.976C42.7987 17.784 42.884 17.5493 42.9054 17.272C42.9267 16.9093 42.9374 16.6853 42.9374 16.6C42.9374 16.4827 42.9267 16.264 42.9054 15.944C42.8947 15.6667 42.8094 15.4373 42.6494 15.256C42.5 15.064 42.2707 14.968 41.9614 14.968C41.652 14.968 41.4227 15.064 41.2734 15.256C41.124 15.4373 41.044 15.6667 41.0334 15.944C41.0227 16.104 41.0174 16.3227 41.0174 16.6C41.0174 16.8667 41.0227 17.0907 41.0334 17.272C41.0547 17.5493 41.1347 17.784 41.2734 17.976C41.4227 18.1573 41.652 18.248 41.9614 18.248ZM48.3454 25.096C47.6414 25.096 47.076 24.904 46.6494 24.52C46.2334 24.1253 46.004 23.6027 45.9614 22.952C45.9507 22.7707 45.9454 22.5307 45.9454 22.232C45.9454 21.9227 45.9507 21.672 45.9614 21.48C46.004 20.8187 46.228 20.296 46.6334 19.912C47.0387 19.528 47.6094 19.336 48.3454 19.336C49.0814 19.336 49.652 19.528 50.0574 19.912C50.4734 20.296 50.6974 20.8187 50.7294 21.48C50.7507 21.9067 50.7614 22.1787 50.7614 22.296C50.7614 22.4133 50.7507 22.632 50.7294 22.952C50.6867 23.6027 50.452 24.1253 50.0254 24.52C49.6094 24.904 49.0494 25.096 48.3454 25.096ZM48.3454 23.848C48.6654 23.848 48.8947 23.7573 49.0334 23.576C49.1827 23.384 49.268 23.1547 49.2894 22.888C49.3107 22.5253 49.3214 22.3013 49.3214 22.216C49.3214 22.0987 49.3107 21.88 49.2894 21.56C49.2787 21.2827 49.1934 21.048 49.0334 20.856C48.884 20.664 48.6547 20.568 48.3454 20.568C48.036 20.568 47.8067 20.664 47.6574 20.856C47.508 21.0373 47.4227 21.272 47.4014 21.56C47.3907 21.72 47.3854 21.9387 47.3854 22.216C47.3854 22.4827 47.3907 22.7067 47.4014 22.888C47.4334 23.1653 47.5187 23.3947 47.6574 23.576C47.8067 23.7573 48.036 23.848 48.3454 23.848ZM61.5085 25.16C60.5592 25.16 59.7432 25.016 59.0605 24.728C58.3778 24.44 57.8605 24.0613 57.5085 23.592C57.1565 23.1227 56.9698 22.616 56.9485 22.072C56.9485 21.976 56.9805 21.896 57.0445 21.832C57.1085 21.768 57.1885 21.736 57.2845 21.736H58.7085C58.8365 21.736 58.9325 21.7627 58.9965 21.816C59.0712 21.8587 59.1405 21.9333 59.2045 22.04C59.3112 22.4027 59.5565 22.7067 59.9405 22.952C60.3245 23.1973 60.8472 23.32 61.5085 23.32C62.2658 23.32 62.8365 23.1973 63.2205 22.952C63.6045 22.696 63.7965 22.344 63.7965 21.896C63.7965 21.5973 63.6952 21.352 63.4925 21.16C63.3005 20.968 63.0072 20.8027 62.6125 20.664C62.2285 20.5253 61.6525 20.3547 60.8845 20.152C59.6258 19.8533 58.7032 19.4587 58.1165 18.968C57.5405 18.4667 57.2525 17.7573 57.2525 16.84C57.2525 16.2213 57.4178 15.672 57.7485 15.192C58.0898 14.712 58.5752 14.3333 59.2045 14.056C59.8445 13.7787 60.5858 13.64 61.4285 13.64C62.3032 13.64 63.0605 13.7947 63.7005 14.104C64.3405 14.4133 64.8258 14.8027 65.1565 15.272C65.4978 15.7307 65.6792 16.1893 65.7005 16.648C65.7005 16.744 65.6685 16.824 65.6045 16.888C65.5405 16.952 65.4605 16.984 65.3645 16.984H63.8765C63.6525 16.984 63.4978 16.8827 63.4125 16.68C63.3485 16.3387 63.1352 16.056 62.7725 15.832C62.4098 15.5973 61.9618 15.48 61.4285 15.48C60.8312 15.48 60.3618 15.592 60.0205 15.816C59.6792 16.04 59.5085 16.3653 59.5085 16.792C59.5085 17.0907 59.5938 17.336 59.7645 17.528C59.9352 17.72 60.2018 17.8907 60.5645 18.04C60.9378 18.1893 61.4712 18.3547 62.1645 18.536C63.1032 18.7493 63.8498 18.9893 64.4045 19.256C64.9698 19.5227 65.3858 19.8587 65.6525 20.264C65.9192 20.6693 66.0525 21.1867 66.0525 21.816C66.0525 22.4987 65.8605 23.096 65.4765 23.608C65.1032 24.1093 64.5698 24.4933 63.8765 24.76C63.1938 25.0267 62.4045 25.16 61.5085 25.16ZM67.6663 25C67.5809 25 67.5009 24.968 67.4263 24.904C67.3623 24.84 67.3303 24.76 67.3303 24.664L67.3623 24.52L71.2183 14.2C71.2929 13.9333 71.4796 13.8 71.7783 13.8H73.5223C73.7996 13.8 73.9863 13.9333 74.0823 14.2L77.9383 24.52C77.9489 24.552 77.9543 24.6 77.9543 24.664C77.9543 24.76 77.9223 24.84 77.8583 24.904C77.7943 24.968 77.7196 25 77.6343 25H76.2423C76.1036 25 75.9969 24.968 75.9223 24.904C75.8476 24.84 75.7996 24.7707 75.7783 24.696L75.0263 22.744H70.2743L69.5223 24.696C69.4369 24.8987 69.2823 25 69.0583 25H67.6663ZM74.4663 20.904L72.6423 15.96L70.8343 20.904H74.4663ZM82.5239 25C82.2145 25 82.0119 24.8507 81.9159 24.552L78.4919 14.28L78.4599 14.136C78.4599 14.04 78.4919 13.96 78.5559 13.896C78.6199 13.832 78.6999 13.8 78.7959 13.8H80.2039C80.3425 13.8 80.4492 13.8373 80.5239 13.912C80.6092 13.976 80.6679 14.056 80.6999 14.152L83.4039 22.392L86.1079 14.152C86.1292 14.0667 86.1825 13.9867 86.2679 13.912C86.3532 13.8373 86.4652 13.8 86.6039 13.8H88.0119C88.0972 13.8 88.1719 13.832 88.2359 13.896C88.3105 13.96 88.3479 14.04 88.3479 14.136L88.3159 14.28L84.8919 24.552C84.7959 24.8507 84.5932 25 84.2839 25H82.5239ZM91.0651 25C90.9585 25 90.8678 24.9627 90.7931 24.888C90.7185 24.8133 90.6811 24.7227 90.6811 24.616V14.2C90.6811 14.0827 90.7131 13.9867 90.7771 13.912C90.8518 13.8373 90.9478 13.8 91.0651 13.8H98.1051C98.2225 13.8 98.3185 13.8373 98.3931 13.912C98.4678 13.9867 98.5051 14.0827 98.5051 14.2V15.256C98.5051 15.3733 98.4678 15.4693 98.3931 15.544C98.3185 15.608 98.2225 15.64 98.1051 15.64H92.8411V18.472H97.7531C97.8705 18.472 97.9665 18.5093 98.0411 18.584C98.1158 18.648 98.1531 18.7387 98.1531 18.856V19.848C98.1531 19.9653 98.1158 20.0613 98.0411 20.136C97.9665 20.2 97.8705 20.232 97.7531 20.232H92.8411V23.16H98.2331C98.3505 23.16 98.4465 23.1973 98.5211 23.272C98.5958 23.3467 98.6331 23.4427 98.6331 23.56V24.616C98.6331 24.7333 98.5958 24.8293 98.5211 24.904C98.4465 24.968 98.3505 25 98.2331 25H91.0651Z" fill="#0D0D2B"/>
</svg>
