<svg width="162" height="59" viewBox="0 0 162 59" fill="none" xmlns="http://www.w3.org/2000/svg">
<rect y="6.10352e-05" width="162" height="59" rx="29.5" fill="#3671E9"/>
<path d="M34.3292 36.0001C34.2092 36.0001 34.1072 35.9581 34.0232 35.8741C33.9392 35.7901 33.8972 35.6881 33.8972 35.5681V23.8321C33.8972 23.7001 33.9392 23.5981 34.0232 23.5261C34.1072 23.4421 34.2092 23.4001 34.3292 23.4001H36.0212C36.1532 23.4001 36.2552 23.4421 36.3272 23.5261C36.4112 23.5981 36.4532 23.7001 36.4532 23.8321V33.8401H42.1592C42.2912 33.8401 42.3992 33.8821 42.4832 33.9661C42.5672 34.0501 42.6092 34.1521 42.6092 34.2721V35.5681C42.6092 35.6881 42.5672 35.7901 42.4832 35.8741C42.3992 35.9581 42.2912 36.0001 42.1592 36.0001H34.3292ZM48.0495 36.1801C46.7055 36.1801 45.6375 35.7961 44.8455 35.0281C44.0655 34.2601 43.6515 33.1681 43.6035 31.7521L43.5855 31.3021C43.5855 29.8021 43.9755 28.6201 44.7555 27.7561C45.5475 26.8921 46.6395 26.4601 48.0315 26.4601C49.4595 26.4601 50.5575 26.8921 51.3255 27.7561C52.1055 28.6201 52.4955 29.7721 52.4955 31.2121V31.5901C52.4955 31.7101 52.4535 31.8121 52.3695 31.8961C52.2855 31.9801 52.1775 32.0221 52.0455 32.0221H46.0695V32.1661C46.0935 32.8381 46.2735 33.3961 46.6095 33.8401C46.9575 34.2721 47.4315 34.4881 48.0315 34.4881C48.7155 34.4881 49.2735 34.2121 49.7055 33.6601C49.8135 33.5281 49.8975 33.4501 49.9575 33.4261C50.0175 33.3901 50.1195 33.3721 50.2635 33.3721H51.8475C51.9555 33.3721 52.0455 33.4021 52.1175 33.4621C52.2015 33.5221 52.2435 33.6061 52.2435 33.7141C52.2435 34.0021 52.0695 34.3441 51.7215 34.7401C51.3855 35.1241 50.8995 35.4601 50.2635 35.7481C49.6275 36.0361 48.8895 36.1801 48.0495 36.1801ZM50.0115 30.4921V30.4561C50.0115 29.7481 49.8315 29.1841 49.4715 28.7641C49.1235 28.3321 48.6435 28.1161 48.0315 28.1161C47.4195 28.1161 46.9395 28.3321 46.5915 28.7641C46.2435 29.1841 46.0695 29.7481 46.0695 30.4561V30.4921H50.0115ZM57.1238 36.1801C56.5118 36.1801 55.9478 36.0601 55.4318 35.8201C54.9278 35.5681 54.5258 35.2321 54.2258 34.8121C53.9378 34.3921 53.7938 33.9301 53.7938 33.4261C53.7938 32.6101 54.1238 31.9501 54.7838 31.4461C55.4438 30.9421 56.3498 30.6001 57.5018 30.4201L59.9678 30.0601V29.6821C59.9678 29.1661 59.8358 28.7761 59.5718 28.5121C59.3078 28.2481 58.8878 28.1161 58.3118 28.1161C57.9158 28.1161 57.5978 28.1881 57.3578 28.3321C57.1178 28.4761 56.9198 28.6261 56.7638 28.7821C56.6198 28.9261 56.5238 29.0221 56.4758 29.0701C56.4278 29.2141 56.3378 29.2861 56.2058 29.2861H54.8018C54.6938 29.2861 54.5978 29.2501 54.5138 29.1781C54.4418 29.1061 54.4058 29.0101 54.4058 28.8901C54.4178 28.5901 54.5618 28.2541 54.8378 27.8821C55.1258 27.4981 55.5638 27.1681 56.1518 26.8921C56.7398 26.6041 57.4658 26.4601 58.3298 26.4601C59.7458 26.4601 60.7778 26.7781 61.4258 27.4141C62.0738 28.0501 62.3978 28.8841 62.3978 29.9161V35.5681C62.3978 35.6881 62.3558 35.7901 62.2718 35.8741C62.1998 35.9581 62.0978 36.0001 61.9658 36.0001H60.4718C60.3518 36.0001 60.2498 35.9581 60.1658 35.8741C60.0818 35.7901 60.0398 35.6881 60.0398 35.5681V34.8661C59.7758 35.2501 59.4038 35.5681 58.9238 35.8201C58.4438 36.0601 57.8438 36.1801 57.1238 36.1801ZM57.7358 34.4521C58.3958 34.4521 58.9358 34.2361 59.3558 33.8041C59.7758 33.3721 59.9858 32.7481 59.9858 31.9321V31.5721L58.1858 31.8601C56.8058 32.0761 56.1158 32.5381 56.1158 33.2461C56.1158 33.6301 56.2718 33.9301 56.5838 34.1461C56.9078 34.3501 57.2918 34.4521 57.7358 34.4521ZM65.1386 36.0001C65.0186 36.0001 64.9166 35.9581 64.8326 35.8741C64.7486 35.7901 64.7066 35.6881 64.7066 35.5681V27.0901C64.7066 26.9581 64.7486 26.8501 64.8326 26.7661C64.9166 26.6821 65.0186 26.6401 65.1386 26.6401H66.6146C66.7466 26.6401 66.8546 26.6821 66.9386 26.7661C67.0226 26.8501 67.0646 26.9581 67.0646 27.0901V27.8281C67.6646 27.0361 68.5286 26.6401 69.6566 26.6401H70.4126C70.5446 26.6401 70.6466 26.6821 70.7186 26.7661C70.8026 26.8381 70.8446 26.9401 70.8446 27.0721V28.3861C70.8446 28.5061 70.8026 28.6081 70.7186 28.6921C70.6466 28.7761 70.5446 28.8181 70.4126 28.8181H68.9906C68.4266 28.8181 67.9826 28.9801 67.6586 29.3041C67.3346 29.6281 67.1726 30.0721 67.1726 30.6361V35.5681C67.1726 35.6881 67.1306 35.7901 67.0466 35.8741C66.9626 35.9581 66.8606 36.0001 66.7406 36.0001H65.1386ZM72.6796 36.0001C72.5596 36.0001 72.4576 35.9581 72.3736 35.8741C72.2896 35.7901 72.2476 35.6881 72.2476 35.5681V27.0721C72.2476 26.9401 72.2896 26.8381 72.3736 26.7661C72.4576 26.6821 72.5596 26.6401 72.6796 26.6401H74.1736C74.3056 26.6401 74.4076 26.6821 74.4796 26.7661C74.5636 26.8381 74.6056 26.9401 74.6056 27.0721V27.8101C75.3376 26.9101 76.3396 26.4601 77.6116 26.4601C78.7156 26.4601 79.5916 26.8201 80.2396 27.5401C80.8876 28.2601 81.2116 29.2501 81.2116 30.5101V35.5681C81.2116 35.6881 81.1696 35.7901 81.0856 35.8741C81.0136 35.9581 80.9116 36.0001 80.7796 36.0001H79.1596C79.0396 36.0001 78.9376 35.9581 78.8536 35.8741C78.7696 35.7901 78.7276 35.6881 78.7276 35.5681V30.6181C78.7276 29.9221 78.5536 29.3821 78.2056 28.9981C77.8696 28.6021 77.3836 28.4041 76.7476 28.4041C76.1356 28.4041 75.6436 28.6021 75.2716 28.9981C74.8996 29.3941 74.7136 29.9341 74.7136 30.6181V35.5681C74.7136 35.6881 74.6716 35.7901 74.5876 35.8741C74.5156 35.9581 74.4136 36.0001 74.2816 36.0001H72.6796ZM88.2413 36.0001C88.1213 36.0001 88.0193 35.9581 87.9353 35.8741C87.8513 35.7901 87.8093 35.6881 87.8093 35.5681V23.8501C87.8093 23.7181 87.8453 23.6101 87.9173 23.5261C88.0013 23.4421 88.1093 23.4001 88.2413 23.4001H89.6993C89.9273 23.4001 90.1073 23.5141 90.2393 23.7421L93.7133 30.1861L97.1873 23.7421C97.3193 23.5141 97.4993 23.4001 97.7273 23.4001H99.1673C99.2993 23.4001 99.4073 23.4421 99.4913 23.5261C99.5753 23.6101 99.6173 23.7181 99.6173 23.8501V35.5681C99.6173 35.7001 99.5753 35.8081 99.4913 35.8921C99.4073 35.9641 99.2993 36.0001 99.1673 36.0001H97.6193C97.4993 36.0001 97.3973 35.9581 97.3133 35.8741C97.2293 35.7901 97.1873 35.6881 97.1873 35.5681V27.8281L94.6853 32.5801C94.5533 32.8441 94.3553 32.9761 94.0913 32.9761H93.3353C93.0833 32.9761 92.8793 32.8441 92.7233 32.5801L90.2213 27.8281V35.5681C90.2213 35.6881 90.1793 35.7901 90.0953 35.8741C90.0233 35.9581 89.9213 36.0001 89.7893 36.0001H88.2413ZM106.359 36.1801C104.943 36.1801 103.851 35.8201 103.083 35.1001C102.315 34.3801 101.901 33.3841 101.841 32.1121L101.823 31.3201L101.841 30.5281C101.901 29.2681 102.321 28.2781 103.101 27.5581C103.881 26.8261 104.967 26.4601 106.359 26.4601C107.739 26.4601 108.819 26.8261 109.599 27.5581C110.379 28.2781 110.799 29.2681 110.859 30.5281C110.871 30.6721 110.877 30.9361 110.877 31.3201C110.877 31.7041 110.871 31.9681 110.859 32.1121C110.799 33.3841 110.385 34.3801 109.617 35.1001C108.849 35.8201 107.763 36.1801 106.359 36.1801ZM106.359 34.3621C106.995 34.3621 107.481 34.1641 107.817 33.7681C108.165 33.3721 108.351 32.7901 108.375 32.0221C108.387 31.9021 108.393 31.6681 108.393 31.3201C108.393 30.9721 108.387 30.7381 108.375 30.6181C108.351 29.8501 108.165 29.2681 107.817 28.8721C107.469 28.4641 106.983 28.2601 106.359 28.2601C105.723 28.2601 105.231 28.4641 104.883 28.8721C104.535 29.2681 104.349 29.8501 104.325 30.6181L104.307 31.3201L104.325 32.0221C104.349 32.7901 104.535 33.3721 104.883 33.7681C105.231 34.1641 105.723 34.3621 106.359 34.3621ZM113.303 36.0001C113.183 36.0001 113.081 35.9581 112.997 35.8741C112.913 35.7901 112.871 35.6881 112.871 35.5681V27.0901C112.871 26.9581 112.913 26.8501 112.997 26.7661C113.081 26.6821 113.183 26.6401 113.303 26.6401H114.779C114.911 26.6401 115.019 26.6821 115.103 26.7661C115.187 26.8501 115.229 26.9581 115.229 27.0901V27.8281C115.829 27.0361 116.693 26.6401 117.821 26.6401H118.577C118.709 26.6401 118.811 26.6821 118.883 26.7661C118.967 26.8381 119.009 26.9401 119.009 27.0721V28.3861C119.009 28.5061 118.967 28.6081 118.883 28.6921C118.811 28.7761 118.709 28.8181 118.577 28.8181H117.155C116.591 28.8181 116.147 28.9801 115.823 29.3041C115.499 29.6281 115.337 30.0721 115.337 30.6361V35.5681C115.337 35.6881 115.295 35.7901 115.211 35.8741C115.127 35.9581 115.025 36.0001 114.905 36.0001H113.303ZM124.339 36.1801C122.995 36.1801 121.927 35.7961 121.135 35.0281C120.355 34.2601 119.941 33.1681 119.893 31.7521L119.875 31.3021C119.875 29.8021 120.265 28.6201 121.045 27.7561C121.837 26.8921 122.929 26.4601 124.321 26.4601C125.749 26.4601 126.847 26.8921 127.615 27.7561C128.395 28.6201 128.785 29.7721 128.785 31.2121V31.5901C128.785 31.7101 128.743 31.8121 128.659 31.8961C128.575 31.9801 128.467 32.0221 128.335 32.0221H122.359V32.1661C122.383 32.8381 122.563 33.3961 122.899 33.8401C123.247 34.2721 123.721 34.4881 124.321 34.4881C125.005 34.4881 125.563 34.2121 125.995 33.6601C126.103 33.5281 126.187 33.4501 126.247 33.4261C126.307 33.3901 126.409 33.3721 126.553 33.3721H128.137C128.245 33.3721 128.335 33.4021 128.407 33.4621C128.491 33.5221 128.533 33.6061 128.533 33.7141C128.533 34.0021 128.359 34.3441 128.011 34.7401C127.675 35.1241 127.189 35.4601 126.553 35.7481C125.917 36.0361 125.179 36.1801 124.339 36.1801ZM126.301 30.4921V30.4561C126.301 29.7481 126.121 29.1841 125.761 28.7641C125.413 28.3321 124.933 28.1161 124.321 28.1161C123.709 28.1161 123.229 28.3321 122.881 28.7641C122.533 29.1841 122.359 29.7481 122.359 30.4561V30.4921H126.301Z" fill="white"/>
</svg>
